<svg xmlns="http://www.w3.org/2000/svg" width="2048" height="2048"><path d="M526.127 2038.106c-28.635-8.047-54.545-17.114-57.579-20.147-3.034-3.022 33.413-8.764 80.993-12.733 179.375-14.958 335.549-74.324 463.538-176.203 34.919-27.797 61.671-55.994 59.448-62.661-2.222-6.67-115.469-82.043-251.658-167.501-309.202-194.02-335.696-213.573-441.021-325.495-95.729-101.72-146.108-179.284-187.244-288.275-23.415-62.038-27.888-92.573-28.387-193.797-.505-102.295 3.538-131.552 27.187-196.761 57.502-158.562 193.28-350.994 323.804-458.915C584.133 78.63 741.36-10.447 752.812 1.004c2.802 2.804-39.378 44.128-93.733 91.834-109.613 96.207-201.754 203.075-239.597 277.901-91.869 181.643-64.665 400.944 74.848 603.36 50.64 73.471 216.943 227.008 320.126 295.55 96.222 63.917 264.008 147.758 342.877 171.335 24.14 7.216 58.55 11.455 76.465 9.42 31.138-3.533 34.426-9.235 74.651-129.32 47.581-142.05 138.448-492.745 130.904-505.212-7.678-12.69-445.87-9.806-479.97 3.168-36.937 14.043-58.146 40.839-58.602 74.032-.284 20.66-5.445 24.669-28.135 21.847-24.778-3.095-31.83-15.53-65.1-114.916-42.222-126.126-79.244-204.498-130.89-277.085-29.676-41.706-33.308-52.932-22.092-68.272 18.239-24.942 23.998-23.605 69.153 16.04 80.53 70.707 140.179 88.156 334.241 97.783 96.603 4.792 321.942 8.965 500.753 9.27l325.112.547-28.745 45.532c-30.817 48.818-154.044 367.904-224.98 582.569-145.683 440.858-419.102 708.287-831.637 813.418-117.275 29.887-209.137 36.059-272.334 18.3z"/></svg>